<?xml version="1.0" encoding="UTF-8" standalone="no"?><svg id="svg4" width="600" height="600" version="1.1" viewBox="0 0 18 18" xmlns="http://www.w3.org/2000/svg">
 <circle id="path857" cx="9" cy="9" r="9" fill="#52ff52" fill-opacity=".50196" opacity=".993" stroke-width=".090709"/>
 <g id="Page-1" transform="matrix(.525 0 0 .525 3.75 3.75)" fill="#fff" fill-rule="evenodd" stroke-width="2.2857">
  <g id="Dribbble-Light-Preview" transform="translate(-420,-959)" fill="#fff" stroke-width="5.2244">
   <g id="icons" transform="translate(56,160)" fill="#fff" stroke-width="2.2857">
    <path id="message_three_points-[#1560]" d="m380.87 808.94c0 1.105-0.895 2-2 2s-2-0.895-2-2 0.895-2 2-2 2 0.895 2 2m-5 0c0 1.105-0.895 2-2 2s-2-0.895-2-2 0.895-2 2-2 2 0.895 2 2m-5 0c0 1.105-0.895 2-2 2s-2-0.895-2-2 0.895-2 2-2 2 0.895 2 2m10.569 8.06s-2.616-0.743-4.423-0.743c-1.474 0-1.81 0.261-3.061 0.261-4.08 0-7.376-3.01-7.882-6.667-0.672-4.854 3.193-8.852 7.882-8.851 3.943 0 7.045 2.703 7.775 6.083 0.268 1.235 0.241 2.461-0.078 3.643-0.38 1.405-0.363 2.985 0.049 4.568 0.211 0.809 0.599 1.706-0.262 1.706m2.476-1.141s-0.277-1.065-0.278-1.069c-0.303-1.16-0.368-2.385-0.055-3.542 0.386-1.426 0.451-2.98 0.103-4.588-0.92-4.255-4.826-7.66-9.73-7.66-5.958-1e-3 -10.693 5.127-9.863 11.125 0.642 4.641 4.776 8.393 9.863 8.393 1.469 0 1.765-0.261 3.062-0.261 1.564 0 3.776 0.662 3.776 0.662 1.888 0.473 3.604-1.209 3.122-3.06" fill="#fff" stroke-width="2.2857"/>
   </g>
  </g>
 </g>
</svg>
