<?xml version="1.0" encoding="UTF-8" standalone="no"?>
<svg
   xmlns:dc="http://purl.org/dc/elements/1.1/"
   xmlns:cc="http://creativecommons.org/ns#"
   xmlns:rdf="http://www.w3.org/1999/02/22-rdf-syntax-ns#"
   xmlns:svg="http://www.w3.org/2000/svg"
   xmlns="http://www.w3.org/2000/svg"
   xmlns:sodipodi="http://sodipodi.sourceforge.net/DTD/sodipodi-0.dtd"
   xmlns:inkscape="http://www.inkscape.org/namespaces/inkscape"
   width="800px"
   height="800px"
   viewBox="0 0 1024 1024"
   class="icon"
   version="1.1"
   id="svg8"
   sodipodi:docname="about-svgrepo-com.svg"
   inkscape:version="1.0.2-2 (e86c870879, 2021-01-15)">
  <metadata
     id="metadata14">
    <rdf:RDF>
      <cc:Work
         rdf:about="">
        <dc:format>image/svg+xml</dc:format>
        <dc:type
           rdf:resource="http://purl.org/dc/dcmitype/StillImage" />
      </cc:Work>
    </rdf:RDF>
  </metadata>
  <defs
     id="defs12">
    <filter
       inkscape:collect="always"
       style="color-interpolation-filters:sRGB"
       id="filter1868"
       x="-0.035999014"
       width="1.071998"
       y="-0.034199064"
       height="1.0683981">
      <feGaussianBlur
         inkscape:collect="always"
         stdDeviation="12.159667"
         id="feGaussianBlur1870" />
    </filter>
  </defs>
  <sodipodi:namedview
     pagecolor="#ffffff"
     bordercolor="#666666"
     borderopacity="1"
     objecttolerance="10"
     gridtolerance="10"
     guidetolerance="10"
     inkscape:pageopacity="0"
     inkscape:pageshadow="2"
     inkscape:window-width="1680"
     inkscape:window-height="987"
     id="namedview10"
     showgrid="false"
     inkscape:zoom="0.36239223"
     inkscape:cx="-258.96877"
     inkscape:cy="-1.874771"
     inkscape:window-x="-8"
     inkscape:window-y="-8"
     inkscape:window-maximized="1"
     inkscape:current-layer="svg8" />
  <path
     d="M 823.05041,899.53821 H 268.38374 l -128,127.99999 V 302.20488 c 0,-70.4 57.6,-128 128,-128 h 554.66667 c 70.4,0 128,57.6 128,128 v 469.33333 c 0,70.4 -57.6,128 -128,128 z"
     fill="#2196F3"
     id="path2"
     style="fill:#d8d8d8;fill-opacity:0.50196081;filter:url(#filter1868)" />
  <path
     d="M789.333333 853.333333H234.666667l-128 128V256c0-70.4 57.6-128 128-128h554.666666c70.4 0 128 57.6 128 128v469.333333c0 70.4-57.6 128-128 128z"
     fill="#2196F3"
     id="path1466"
     style="fill:#a0ffa0;fill-opacity:1" />
  <path
     d="M469.333333 426.666667h85.333334v234.666666h-85.333334z"
     fill="#FFFFFF"
     id="path4" />
  <path
     d="M512 320m-42.666667 0a42.666667 42.666667 0 1 0 85.333334 0 42.666667 42.666667 0 1 0-85.333334 0Z"
     fill="#FFFFFF"
     id="path6" />
</svg>
