<?xml version="1.0" encoding="UTF-8" standalone="no"?><svg id="svg4" width="600" height="600" version="1.1" viewBox="0 0 18 18" xmlns="http://www.w3.org/2000/svg">
 <circle id="path857" cx="9" cy="9" r="9" fill="#52ff52" fill-opacity=".50196" opacity=".993" stroke-width=".090709"/>
 <g id="layer1" transform="matrix(.40914 0 0 .40914 -120.29 -38.461)" fill="#fff" fill-rule="evenodd" stroke-linecap="round" stroke-linejoin="round" stroke-miterlimit="4.1" stroke-width="1.8331">
  <path id="path22520" d="m316 102c-2.1973 0-4 1.8027-4 4a1.0001 1.0001 0 0 0 0 6e-3c4e-3 0.67668 0.17824 1.3419 0.50977 1.9336a0.99999 0.99999 0 0 0 1.3613 0.38477 0.99999 0.99999 0 0 0 0.38477-1.3613c-0.16483-0.29418-0.25322-0.62618-0.25586-0.96484 1e-3 -1.1155 0.88425-1.998 2-1.998s1.999 0.88257 2 1.998c-3e-3 0.33518-0.0889 0.66415-0.25195 0.95703a0.99999 0.99999 0 0 0 0.38672 1.3594 0.99999 0.99999 0 0 0 1.3594-0.38672c0.32737-0.5879 0.50179-1.249 0.50586-1.9219a1.0001 1.0001 0 0 0 0-6e-3c0-2.1973-1.8027-4-4-4z" color="#000000"/>
  <path id="rect22470" d="m316 106c-4.9587 0-9 4.0413-9 9v6c-1.6447 0-3 1.3553-3 3s1.3553 3 3 3h18c1.6447 0 3-1.3553 3-3s-1.3553-3-3-3v-6c0-4.9587-4.0413-9-9-9zm0 2c3.8778 0 7 3.1222 7 7v7a1.0001 1.0001 0 0 0 1 1h1c0.57127 0 1 0.42873 1 1s-0.42873 1-1 1h-18c-0.57127 0-1-0.42873-1-1s0.42873-1 1-1h1a1.0001 1.0001 0 0 0 1-1v-7c0-3.8778 3.1222-7 7-7z" color="#000000"/>
  <path id="path22489" d="m311 128a1 1 0 0 0-1 1 1 1 0 0 0 1 1h10a1 1 0 0 0 1-1 1 1 0 0 0-1-1z" color="#000000"/>
  <path id="path22577" d="m324.57 105.26a1 1 0 0 0-1.4121 0.0879 1 1 0 0 0 0.0879 1.4121c1.8584 1.6395 3.167 3.8864 3.5976 6.4102a1 1 0 0 0 1.1543 0.81835 1 1 0 0 0 0.81641-1.1543c-0.51035-2.9909-2.0548-5.6428-4.2441-7.5742z" color="#000000"/>
  <path id="rect22564" d="m308.16 105.01a1 1 0 0 0-0.72461 0.24805c-2.1947 1.9322-3.7452 4.5881-4.2559 7.584a1 1 0 0 0 0.81836 1.1543 1 1 0 0 0 1.1543-0.81836c0.43092-2.528 1.7406-4.7779 3.6035-6.418a1 1 0 0 0 0.0899-1.4121 1 1 0 0 0-0.68555-0.33789z" color="#000000"/>
 </g>
</svg>
