<?xml version="1.0" encoding="UTF-8" standalone="no"?><svg enable-background="new 0 0 480 480" version="1.1" viewBox="0 0 480 480" xml:space="preserve" xmlns="http://www.w3.org/2000/svg"><defs><radialGradient id="radialGradient4659" cx="240" cy="240" r="240" gradientUnits="userSpaceOnUse"><stop offset="0"/><stop stop-opacity="0" offset="1"/></radialGradient></defs>
















<circle cx="240" cy="240" r="220" fill="none" stroke="url(#radialGradient4659)" stroke-opacity=".49799" stroke-width="40"/><circle cx="241.86" cy="240" r="200" fill="#52ff52" fill-opacity=".5"/><script id="mesh_polyfill" type="text/javascript">
</script><g transform="translate(-38.292 11.599)" fill="#fff" stroke-width=".16542"><g transform="matrix(6.0453 0 0 6.0453 55.121 1.9688)"><rect x="36.099" y="10.4" width="2.249" height="7.058"/><rect x="36.099" y="57.453" width="2.249" height="7.059"/><rect x="57.221" y="36.333" width="7.059" height="2.249"/><rect x="10.167" y="36.333" width="7.059" height="2.249"/><polygon points="57.955 26.049 56.778 24.132 59.695 22.347 60.872 24.264"/><polygon points="14.751 52.565 13.573 50.647 16.327 48.993 17.503 50.912"/><rect transform="matrix(-.8777 -.4792 .4792 -.8777 85.401 52.222)" x="48.239" y="13.504" width="2.25" height="3.419"/><polygon points="25.239 61.746 23.265 60.667 24.83 57.864 26.805 58.943"/><polygon points="48.299 58.375 50.234 57.229 51.972 60.174 50.036 61.319"/><polygon points="22.483 14.747 24.419 13.601 26.028 16.38 24.093 17.528"/><rect transform="matrix(.4942 -.8694 .8694 .4942 -13.452 76.794)" x="58.143" y="48.249" width="2.249" height="3.417"/><polygon points="13.135 25.087 14.244 23.128 17.021 24.74 15.913 26.696"/></g><polygon transform="matrix(6.0453 0 0 6.0453 55.121 1.9688)" points="39.424 39.243 51.972 33.755 36.099 34.581 29.622 53.228"/></g></svg>
