<?xml version="1.0" encoding="UTF-8" standalone="no"?><svg id="Capa_1" enable-background="new 0 0 480 480" version="1.1" viewBox="0 0 480 480" xmlns="http://www.w3.org/2000/svg" xmlns:osb="http://www.openswatchbook.org/uri/2009/osb" xmlns:xlink="http://www.w3.org/1999/xlink">
<defs id="defs943">
<radialGradient id="radialGradient4659" cx="240" cy="240" r="240" gradientUnits="userSpaceOnUse">
<stop id="stop4653" offset="0"/>
<stop id="stop4655" stop-opacity="0" offset="1"/>
</radialGradient>
</defs>
<circle id="path4243" cx="240" cy="240" r="220" fill="none" stroke="url(#radialGradient4659)" stroke-opacity=".5" stroke-width="40"/>
<circle id="path4245" cx="240" cy="240" r="200" fill="#52ff52" fill-opacity=".5"/>
<script id="mesh_polyfill" type="text/javascript"></script>
<g fill="#fff" stroke-width="1.6">
<path id="path2" d="m313 163h-146c-2.1 0-3.8 1.7-3.8 3.8v146c0 2.1 1.7 3.8 3.8 3.8h107c2.1 0 3.8-1.7 3.8-3.8s-1.7-3.8-3.8-3.8h-103v-138h138v138h-21c-2.1 0-3.8 1.7-3.8 3.8s1.7 3.8 3.8 3.8h25c2.1 0 3.8-1.7 3.8-3.8v-146c4.7e-4 -2.1-1.7-3.8-3.8-3.8z"/>
<path id="path4" d="m356 258c2.1 0 3.8-1.7 3.8-3.8 0-2.1-1.7-3.8-3.8-3.8h-22v-21h22c2.1 0 3.8-1.7 3.8-3.8 0-2.1-1.7-3.8-3.8-3.8h-22v-21h22v4.6e-4c2.1 0 3.8-1.7 3.8-3.8 0-2.1-1.7-3.8-3.8-3.8h-22v-21h22c2.1 0 3.8-1.7 3.8-3.8s-1.7-3.8-3.8-3.8h-22c-0.049-9.9-8.1-18-18-18v-22c0-2.1-1.7-3.8-3.8-3.8s-3.8 1.7-3.8 3.8v22h-21v-22c0-2.1-1.7-3.8-3.8-3.8-2.1 0-3.8 1.7-3.8 3.8v22h-21v-22c0-2.1-1.7-3.8-3.8-3.8-2.1 0-3.8 1.7-3.8 3.8v22h-21v-22c-4.7e-4 -2.1-1.7-3.8-3.8-3.8-2.1 0-3.8 1.7-3.8 3.8v22h-21v-22c0-2.1-1.7-3.8-3.8-3.8-2.1 0-3.8 1.7-3.8 3.8v22h-21v-22c0-2.1-1.7-3.8-3.8-3.8s-3.8 1.7-3.8 3.8v22c-9.9 0.048-18 8.1-18 18h-22c-2.1 0-3.8 1.7-3.8 3.8s1.7 3.8 3.8 3.8h22v21h-22c-2.1 0-3.8 1.7-3.8 3.8 0 2.1 1.7 3.8 3.8 3.8h22v21h-22c-2.1 0-3.8 1.7-3.8 3.8 0 2.1 1.7 3.8 3.8 3.8h22v21h-22c-2.1 0-3.8 1.7-3.8 3.8 0 2.1 1.7 3.8 3.8 3.8h22v21h-22c-2.1 0-3.8 1.7-3.8 3.8 0 2.1 1.7 3.8 3.8 3.8h22v21h-22c-2.1 0-3.8 1.7-3.8 3.8 0 2.1 1.7 3.8 3.8 3.8h22c0.048 9.9 8.1 18 18 18v22c0 2.1 1.7 3.8 3.8 3.8 2.1 0 3.8-1.7 3.8-3.8v-22h21v22c0 2.1 1.7 3.8 3.8 3.8 2.1 0 3.8-1.7 3.8-3.8v-22h21v22c0 2.1 1.7 3.8 3.8 3.8s3.8-1.7 3.8-3.8v-22h21v22c0 2.1 1.7 3.8 3.8 3.8 2.1 0 3.8-1.7 3.8-3.8v-22h21v22c0 2.1 1.7 3.8 3.8 3.8s3.8-1.7 3.8-3.8v-22h21v22c0 2.1 1.7 3.8 3.8 3.8 2.1 0 3.8-1.7 3.8-3.8v-22c9.9-0.049 18-8.1 18-18h22c2.1 0 3.8-1.7 3.8-3.8s-1.7-3.8-3.8-3.8h-22v-21h22c2.1 0 3.8-1.7 3.8-3.8 0-2.1-1.7-3.8-3.8-3.8h-22v-21h22zm-40 68h-33c-0.0028 0-0.0056-4.7e-4 -0.0084-4.7e-4 -0.0033 0-0.0056 4.7e-4 -0.0084 4.7e-4h-29c-0.0033 0-0.0056-4.7e-4 -0.0084-4.7e-4 -0.0028 0-0.0056 4.7e-4 -0.0084 4.7e-4h-29c-0.0028 0-0.0056-4.7e-4 -0.0084-4.7e-4s-0.0056 4.7e-4 -0.0084 4.7e-4h-29c-0.0028 0-0.0056-4.7e-4 -0.0084-4.7e-4 -0.0028 0-0.0056 4.7e-4 -0.0084 4.7e-4h-29c-0.0028 0-0.0056-4.7e-4 -0.0084-4.7e-4 -0.0028 0-0.0056 4.7e-4 -0.0084 4.7e-4h-3.7c-5.8 0-10-4.7-10-10v-153c0-5.8 4.7-10 10-10h3.7c0.0038 0 0.0066 4.7e-4 0.0094 4.7e-4s0.0066-4.7e-4 0.0098-4.7e-4h29c0.0038 0 0.0066 4.7e-4 0.0098 4.7e-4 0.0028 0 0.0066-4.7e-4 0.0094-4.7e-4h29c0.0038 0 0.0066 4.7e-4 0.0098 4.7e-4s0.0066-4.7e-4 0.0094-4.7e-4h29c0.0038 0 0.0066 4.7e-4 0.0098 4.7e-4s0.0066-4.7e-4 0.0098-4.7e-4h29c0.0038 0 0.0066 4.7e-4 0.0098 4.7e-4 0.0028 0 0.0066-4.7e-4 0.0094-4.7e-4h33c5.8 0 10 4.7 10 10v153h0.0014c4.7e-4 5.8-4.7 10-10 10z"/>
<path id="path6" d="m286 196c2.1 0 3.8-1.7 3.8-3.8 0-2.1-1.7-3.8-3.8-3.8h-2.2c-2.1 0-3.8 1.7-3.8 3.8 0 2.1 1.7 3.8 3.8 3.8z"/>
<path id="path8" d="m271 189h-77c-2.1 0-3.8 1.7-3.8 3.8 0 2.1 1.7 3.8 3.8 3.8h77c2.1 0 3.8-1.7 3.8-3.8 0-2.1-1.7-3.8-3.8-3.8z"/>
<path id="path10" d="m286 229h-2.2c-2.1 0-3.8 1.7-3.8 3.8 0 2.1 1.7 3.8 3.8 3.8h2.2c2.1 0 3.8-1.7 3.8-3.8 0-2.1-1.7-3.8-3.8-3.8z"/>
<path id="path12" d="m275 233c0-2.1-1.7-3.8-3.8-3.8h-77c-2.1 0-3.8 1.7-3.8 3.8 0 2.1 1.7 3.8 3.8 3.8h77c2.1 4.7e-4 3.8-1.7 3.8-3.8z"/>
<path id="path14" d="m194 216h2.2c2.1 0 3.8-1.7 3.8-3.8 0-2.1-1.7-3.8-3.8-3.8h-2.2c-2.1 0-3.8 1.7-3.8 3.8 0 2.1 1.7 3.8 3.8 3.8z"/>
<path id="path16" d="m205 213c0 2.1 1.7 3.8 3.8 3.8h77c2.1 0 3.8-1.7 3.8-3.8 0-2.1-1.7-3.8-3.8-3.8h-77c-2.1 0-3.8 1.7-3.8 3.8z"/>
<path id="path18" d="m194 267c-2.1 0-3.8 1.7-3.8 3.8s1.7 3.8 3.8 3.8h2.5c2.1 0 3.8-1.7 3.8-3.8s-1.7-3.8-3.8-3.8z"/>
<path id="path20" d="m212 267c-2.1 0-3.8 1.7-3.8 3.8s1.7 3.8 3.8 3.8h2.5c2.1 0 3.8-1.7 3.8-3.8s-1.7-3.8-3.8-3.8z"/>
<path id="path22" d="m230 267c-2.1 0-3.8 1.7-3.8 3.8s1.7 3.8 3.8 3.8h2.5c2.1 0 3.8-1.7 3.8-3.8s-1.7-3.8-3.8-3.8z"/>
<path id="path24" d="m290 281v-20c0-5.4-4.4-9.9-9.9-9.9h-20c-5.4 0-9.9 4.4-9.9 9.9v20c0 5.4 4.4 9.9 9.9 9.9h20c5.4 0 9.9-4.4 9.9-9.9zm-7.6 0c0 1.3-1 2.3-2.3 2.3h-20c-1.3 0-2.3-1-2.3-2.3v-20c0-1.3 1-2.3 2.3-2.3h20c1.3 0 2.3 1 2.3 2.3z"/>
</g>
</svg>
