<?xml version="1.0" encoding="UTF-8" standalone="no"?><svg enable-background="new 0 0 480 480" version="1.1" viewBox="0 0 480 480" xmlns="http://www.w3.org/2000/svg">
 <defs>
  <radialGradient id="radialGradient4659" cx="240" cy="240" r="240" gradientUnits="userSpaceOnUse">
   <stop offset="0"/>
   <stop stop-opacity="0" offset="1"/>
  </radialGradient>
 </defs>
 <circle cx="240" cy="240" r="220" fill="none" stroke="url(#radialGradient4659)" stroke-opacity=".49799" stroke-width="40"/>
 <circle cx="240" cy="240" r="200" fill="#52ff52" fill-opacity=".5"/>
 <script id="mesh_polyfill" type="text/javascript"></script>
 <path d="m232.91 111.72c-65.676 0-118.94 53.268-118.94 118.94 0 38.192 18.017 72.169 46.017 93.895l-25.12 24.404 82.445 0.71567 1.7176-82.445-26.05 25.263c-20.277-13.113-33.708-35.88-33.708-61.834 0-40.68 32.962-73.642 73.642-73.642 1.7853 0 3.5424 0.0898 5.2959 0.21458v-45.373c-1.7474-0.0763-3.5298-0.14313-5.2959-0.14313zm29.772 18.607-1.7176 82.445 26.05-25.263c20.277 13.113 33.708 35.88 33.708 61.834 0 40.68-32.962 73.642-73.642 73.642-1.7854 0-3.5424-0.0898-5.2959-0.21459v45.373c1.7474 0.0763 3.5298 0.14313 5.2959 0.14313 65.676 0 118.94-53.268 118.94-118.94 0-38.192-18.017-72.169-46.017-93.895l25.12-24.404-82.445-0.71567z" fill="#fff"/>
</svg>
