<?xml version="1.0" encoding="UTF-8" standalone="no"?><svg enable-background="new 0 0 480 480" version="1.1" viewBox="0 0 480 480" xmlns="http://www.w3.org/2000/svg" xmlns:xlink="http://www.w3.org/1999/xlink">
 <defs>
  <radialGradient id="radialGradient4659" cx="240" cy="240" r="240" gradientUnits="userSpaceOnUse">
   <stop offset="0"/>
   <stop stop-opacity="0" offset="1"/>
  </radialGradient>
  <linearGradient id="linearGradient956" x1="315.53" x2="456.07" y1="215.97" y2="215.97" gradientTransform="matrix(.86235 0 0 .86101 135.53 30.051)" gradientUnits="userSpaceOnUse">
   <stop stop-color="#fff" offset="0"/>
   <stop stop-color="#fff" stop-opacity=".49804" offset=".86186"/>
   <stop stop-color="#fff" stop-opacity=".45714" offset="1"/>
  </linearGradient>
 </defs>
 <circle cx="240" cy="240" r="220" fill="none" stroke="url(#radialGradient4659)" stroke-opacity=".49799" stroke-width="40"/>
 <circle cx="240" cy="240" r="200" fill="#52ff52" fill-opacity=".5"/>
 <script id="mesh_polyfill" type="text/javascript"></script>
 <path d="m230.6 69.784c-87.144 0-157.82 70.68-157.82 157.82 0 50.676 23.906 95.759 61.059 124.59l-33.331 32.381 109.39 0.9496 2.279-109.39-34.566 33.521c-26.905-17.4-44.726-47.608-44.726-82.046 0-53.977 43.737-97.714 97.714-97.714 2.3689 0 4.7004 0.11916 7.0271 0.28473v-60.205c-2.3186-0.10124-4.6836-0.18992-7.0271-0.18992zm39.503 24.69-2.279 109.39 34.566-33.521c26.905 17.4 44.726 47.608 44.726 82.046 0 53.977-43.737 97.714-97.714 97.714-2.369 0-4.7004-0.11916-7.0271-0.28474v60.205c2.3186 0.10124 4.6836 0.18992 7.0271 0.18992 87.144 0 157.82-70.68 157.82-157.82 0-50.676-23.906-95.759-61.059-124.59l33.331-32.381-109.39-0.94961z" fill="#fff"/>
 <text transform="matrix(1.1596 0 0 1.1614 -299.02 -10.812)" x="381.95953" y="242.67659" fill="url(#linearGradient956)" font-family="Arial" font-size="74.667px" stroke="#ffffff" stroke-width=".86168" style="inline-size:157.932;line-height:1.25;white-space:pre" xml:space="preserve"><tspan x="381.95953" y="242.67659"><tspan fill="url(#linearGradient956)" font-family="Arial" font-style="italic" font-weight="bold" stroke="#ffffff" stroke-width=".86168">STM</tspan></tspan></text>
</svg>
