<?xml version="1.0" encoding="UTF-8" standalone="no"?><svg id="svg1386" enable-background="new 0 0 480 480" version="1.1" viewBox="0 0 480 480" xmlns="http://www.w3.org/2000/svg">
 <defs id="defs1365">
  <radialGradient id="radialGradient4659" cx="240" cy="240" r="240" gradientUnits="userSpaceOnUse">
   <stop id="stop1357" offset="0"/>
   <stop id="stop1359" stop-opacity="0" offset="1"/>
  </radialGradient>
 </defs>
 <circle id="circle1367" cx="240" cy="240" r="220" fill="none" stroke="url(#radialGradient4659)" stroke-opacity=".49799" stroke-width="40"/>
 <circle id="circle1369" cx="240" cy="240" r="200" fill="#52ff52" fill-opacity=".5"/>
 <script id="mesh_polyfill" type="text/javascript"></script>
 <g id="g18" transform="matrix(.55089 0 0 .55089 81.284 81.285)" fill="#fff" stroke-width="2.5202">
  <path id="path2" d="m321.58 406.95v-234.82c-36.26 22.711-37.455-23.906-66.937 0v234.82c-23.973 12.234-40.439 37.154-40.439 65.863 0 40.752 33.155 73.906 73.908 73.906s73.908-33.154 73.908-73.906c0-28.708-16.465-53.628-40.44-65.863zm-2.896 75.957c-10.318 0-18.686-8.367-18.686-18.686s8.357-18.686 18.686-18.686c10.318 0 18.684 8.367 18.684 18.686s-8.366 18.686-18.684 18.686z"/>
  <path id="path4" d="m264.2 57.374h57.375c2.639 0 4.781-2.142 4.781-4.781s-2.143-4.781-4.781-4.781h-57.375c-2.64 0-4.781 2.142-4.781 4.781-1e-3 2.639 2.141 4.781 4.781 4.781z"/>
  <path id="path6" d="m321.58 66.937h-28.687c-2.639 0-4.781 2.142-4.781 4.781s2.142 4.781 4.781 4.781h28.688c2.641 0 4.781-2.142 4.781-4.781-1e-3 -2.639-2.141-4.781-4.782-4.781z"/>
  <path id="path8" d="m264.2 95.624h57.375c2.639 0 4.781-2.142 4.781-4.781s-2.143-4.781-4.781-4.781h-57.375c-2.64 0-4.781 2.142-4.781 4.781-1e-3 2.639 2.141 4.781 4.781 4.781z"/>
  <path id="path10" d="m321.58 105.19h-28.687c-2.639 0-4.781 2.142-4.781 4.781s2.142 4.781 4.781 4.781h28.688c2.641 0 4.781-2.142 4.781-4.781-1e-3 -2.639-2.141-4.781-4.782-4.781z"/>
  <path id="path12" d="m264.2 133.87h57.375c2.639 0 4.781-2.142 4.781-4.781s-2.141-4.781-4.781-4.781h-57.375c-2.639 0-4.78 2.142-4.78 4.781-1e-3 2.639 2.14 4.781 4.78 4.781z"/>
  <path id="path14" d="m321.58 143.44h-28.687c-2.639 0-4.781 2.142-4.781 4.781s2.142 4.781 4.781 4.781h28.688c2.641 0 4.781-2.142 4.781-4.781-1e-3 -2.639-2.141-4.781-4.782-4.781z"/>
  <path id="path16" d="m350.26 390.22v-343.88c0-28.592-21.371-46.349-55.778-46.349h-10.356c-34.798 0-58.179 18.628-58.179 46.349v343.88c-25.037 18.889-41.25 48.879-41.25 82.588 0 57.018 46.388 103.41 103.41 103.41s103.41-46.389 103.41-103.41c0-33.708-16.215-63.699-41.252-82.587zm-62.156 175.99c-51.588 0-93.408-41.82-93.408-93.406 0-27.719 12.077-52.611 31.251-69.719 3.019-2.693 6.211-5.193 9.562-7.482v-349.26c0-27.157 26.182-36.787 48.606-36.787h10.355c10.844 0 46.225 2.649 46.225 36.787v349.26c3.352 2.287 6.545 4.789 9.562 7.482 19.174 17.105 31.252 42 31.252 69.717 3e-3 51.588-41.818 93.407-93.405 93.407z"/>
 </g>
</svg>
