<?xml version="1.0" encoding="UTF-8" standalone="no"?><svg enable-background="new 0 0 480 480" version="1.1" viewBox="0 0 480 480" xml:space="preserve" xmlns="http://www.w3.org/2000/svg"><defs><radialGradient id="radialGradient4659" cx="240" cy="240" r="240" gradientUnits="userSpaceOnUse"><stop offset="0"/><stop stop-opacity="0" offset="1"/></radialGradient></defs>
















<circle cx="240" cy="240" r="220" fill="none" stroke="url(#radialGradient4659)" stroke-opacity=".49799" stroke-width="40"/><circle cx="240" cy="240" r="200" fill="#52ff52" fill-opacity=".5"/><script id="mesh_polyfill" type="text/javascript">
</script><path d="m309.09 276.71c-2.1151-2.1151-5.5396-2.1151-7.6882 0-2.1151 2.1151-2.1151 5.5731 0 7.6882 16.417 16.417 25.448 38.206 25.448 61.405 0 2.988 2.4172 5.4388 5.4388 5.4388 2.988 0 5.4388-2.4172 5.4388-5.4388-0.0335-26.086-10.173-50.628-28.638-69.093zm-69.093-147.96c-35.923 0-65.132 29.242-65.132 65.132 0 25.616 14.873 47.842 36.427 58.451-15.074 4.5995-28.906 12.892-40.388 24.374-18.465 18.465-28.638 42.974-28.638 69.093 0 2.988 2.4172 5.4388 5.4388 5.4388 3.0216 0 5.4388-2.4172 5.4388-5.4388 0-23.199 9.0312-45.021 25.448-61.405 15.813-15.813 36.662-24.777 58.921-25.415 0.83932 0.0335 1.6451 0.067 2.4844 0.067 35.923 0 65.132-29.209 65.132-65.132 0-35.957-29.209-65.165-65.132-65.165zm0.87291 119.42c-0.30216-0.0335-0.57076-0.067-0.90647-0.067-0.83932 0-1.6451 0-2.4844 0.0335-28.772-1.3093-51.803-25.146-51.803-54.22 0-29.947 24.34-54.288 54.288-54.288 29.914 0 54.288 24.34 54.288 54.288 0.0335 29.611-23.837 53.784-53.381 54.254z" fill="#fff"/></svg>
