<?xml version="1.0" encoding="UTF-8" standalone="no"?><svg enable-background="new 0 0 480 480" version="1.1" viewBox="0 0 480 480" xml:space="preserve" xmlns="http://www.w3.org/2000/svg" xmlns:osb="http://www.openswatchbook.org/uri/2009/osb" xmlns:xlink="http://www.w3.org/1999/xlink"><defs><radialGradient id="radialGradient4659" cx="240" cy="240" r="240" gradientUnits="userSpaceOnUse"><stop offset="0"/><stop stop-opacity="0" offset="1"/></radialGradient><filter id="filter1580" x="-.003769" y="-.0042729" width="1.0075" height="1.0085" color-interpolation-filters="sRGB"><feGaussianBlur stdDeviation="0.80404675"/></filter></defs>
















<circle cx="240" cy="240" r="220" fill="none" stroke="url(#radialGradient4659)" stroke-opacity=".49799" stroke-width="40"/><circle cx="240" cy="240" r="200" fill="#52ff52" fill-opacity=".5"/><script id="mesh_polyfill" type="text/javascript">
</script><g transform="matrix(.46116 0 0 .46063 126.27 126.58)" fill="#fff" filter="url(#filter1580)" opacity=".999" stroke-width="2.1731"><g fill="#fff" stroke-width="2.1731"><g fill="#fff" stroke-width="2.1731"><path d="m357.41 317.86c-27.086-27.088-63.102-42.006-101.41-42.006-38.307 0-74.323 14.919-101.41 42.006-14.299 14.299-14.297 37.48 0 51.779s37.48 14.297 51.778 0c13.256-13.256 30.883-20.558 49.632-20.558 18.748 0 36.375 7.301 49.632 20.558 7.149 7.151 16.519 10.725 25.889 10.724 9.369 0 18.741-3.576 25.889-10.724 14.298-14.299 14.298-37.48 0-51.779z"/><path d="m424.57 223.84c-92.95-92.949-244.19-92.948-337.14 0-14.297 14.299-14.297 37.481 0 51.78 14.299 14.299 37.481 14.299 51.78 0 64.4-64.4 169.18-64.399 233.58 0 7.149 7.149 16.52 10.724 25.889 10.724s18.74-3.575 25.889-10.724c14.299-14.299 14.299-37.481 0-51.78z"/><path d="m501.28 131.79c-65.515-65.516-152.62-101.6-245.28-101.6s-179.76 36.081-245.28 101.6c-14.297 14.299-14.297 37.481 0 51.78 14.299 14.299 37.481 14.299 51.78 0 106.7-106.7 280.3-106.7 386.99 0 7.149 7.149 16.52 10.724 25.889 10.724s18.74-3.575 25.889-10.724c14.3-14.299 14.3-37.481 1e-3 -51.78z"/><circle cx="256" cy="436.04" r="45.767"/></g></g></g></svg>
