<?xml version="1.0" encoding="UTF-8" standalone="no"?><svg id="svg12" class="iconify iconify--twemoji" width="800px" height="800px" aria-hidden="true" role="img" version="1.1" viewBox="0 0 36 36" xmlns="http://www.w3.org/2000/svg">
 <path id="path2" d="M36 32a4 4 0 0 1-4 4H4a4 4 0 0 1-4-4V9a4 4 0 0 1 4-4h28a4 4 0 0 1 4 4v23z" fill="#E0E7EC"/>
 <path id="path6" d="M34 0h-3.277c.172.295.277.634.277 1a2 2 0 0 1-4 0c0-.366.105-.705.277-1H8.723C8.895.295 9 .634 9 1a2 2 0 0 1-4 0c0-.366.105-.705.277-1H2a2 2 0 0 0-2 2v11h36V2a2 2 0 0 0-2-2z" fill="#DD2F45"/>
 <path id="path10" d="m32 9.2574a1 1 0 1 0 2 0 1 1 0 0 0-2 0m0-3a1 1 0 1 0 2 0 1 1 0 0 0-2 0m-3 3a1 1 0 1 0 2 0 1 1 0 0 0-2 0m0-3a1 1 0 1 0 2 0 1 1 0 0 0-2 0m-3 3a1 1 0 1 0 2 0 1 1 0 0 0-2 0m0-3a1 1 0 1 0 2 0 1 1 0 0 0-2 0m-3 0a1 1 0 1 0 2 0 1 1 0 0 0-2 0m0 3a1 1 0 1 0 2 0 1 1 0 0 0-2 0" fill="#f4abba" opacity=".995"/>
 <text id="text845" x="6.8252788" y="10.076691" fill="#ffffff" font-family="Arial" font-size="6.48px" font-weight="bold" opacity=".995" stroke-width=".045" style="line-height:1.25" xml:space="preserve"><tspan id="tspan843" x="6.8252788" y="10.076691" fill="#ffffff" font-family="Arial" font-size="6.48px" font-weight="bold" stroke-width=".045">°C</tspan></text>
 <text id="id_home_cal_temp" x="18.399593" y="28.639404" fill="#000000" fill-opacity=".49807" font-family="Arial" font-size="12.6px" font-weight="bold" stroke-width=".045" text-align="center" text-anchor="middle" style="line-height:1.25" xml:space="preserve"><tspan id="tspan847" x="18.399593" y="28.639404" fill="#000000" fill-opacity=".49807" font-family="Arial" font-size="12.6px" font-weight="bold" stroke-width=".045" text-align="center" text-anchor="middle">23.5</tspan></text>
</svg>
