<?xml version="1.0" encoding="UTF-8" standalone="no"?><svg id="svg4" width="733.33" height="733.33" fill="none" version="1.1" viewBox="0 0 22 22" xmlns="http://www.w3.org/2000/svg">
 <path id="path2" d="m0 11c0-6.0751 4.9249-11 11-11 6.0751 0 11 4.9249 11 11 0 6.0751-4.9249 11-11 11-6.0751 0-11-4.9249-11-11zm9.25-1c0-0.5523 0.4477-1 1-1h1.5c0.5523 0 1 0.4477 1 1v7c0 0.5523-0.4477 1-1 1h-1.5c-0.5523 0-1-0.4477-1-1zm3.75-4c0-1.1046-0.8954-2-2-2s-2 0.89543-2 2 0.8954 2 2 2 2-0.89543 2-2z" clip-rule="evenodd" fill="#52ff52" fill-opacity=".50196" fill-rule="evenodd"/>
</svg>
