<?xml version="1.0" encoding="UTF-8" standalone="no"?><svg id="svg4" class="cf-icon-svg" width="666.69" height="666.69" fill="#000000" version="1.1" viewBox="-1 0 15.834 15.834" xmlns="http://www.w3.org/2000/svg">
 <path id="path2" d="m14.834 7.917a7.917 7.917 0 1 1-7.917-7.917 7.917 7.917 0 0 1 7.917 7.917zm-2.327-0.557a0.391 0.391 0 0 0-0.312-0.371l-0.952-0.165a0.315 0.315 0 0 0-0.05-3e-3 4.386 4.386 0 0 0-0.467-1.125 0.344 0.344 0 0 0 0.034-0.039l0.556-0.79a0.391 0.391 0 0 0-0.041-0.482l-0.81-0.81a0.391 0.391 0 0 0-0.483-0.042l-0.79 0.557a0.315 0.315 0 0 0-0.039 0.033 4.41 4.41 0 0 0-1.124-0.466 0.284 0.284 0 0 0-4e-3 -0.05l-0.164-0.952a0.391 0.391 0 0 0-0.37-0.312h-1.148a0.39 0.39 0 0 0-0.37 0.312l-0.165 0.951a0.315 0.315 0 0 0-4e-3 0.05 4.408 4.408 0 0 0-1.125 0.467 0.293 0.293 0 0 0-0.039-0.033l-0.788-0.556a0.391 0.391 0 0 0-0.483 0.042l-0.81 0.81a0.391 0.391 0 0 0-0.042 0.483l0.557 0.79a0.313 0.313 0 0 0 0.033 0.038 4.397 4.397 0 0 0-0.466 1.125 0.316 0.316 0 0 0-0.05 3e-3l-0.952 0.165a0.391 0.391 0 0 0-0.312 0.37v1.147a0.39 0.39 0 0 0 0.312 0.37l0.952 0.165a0.317 0.317 0 0 0 0.05 4e-3 4.396 4.396 0 0 0 0.466 1.124 0.313 0.313 0 0 0-0.033 0.04l-0.557 0.789a0.391 0.391 0 0 0 0.042 0.482l0.81 0.81a0.39 0.39 0 0 0 0.483 0.042l0.79-0.557a0.293 0.293 0 0 0 0.039-0.033 4.375 4.375 0 0 0 1.124 0.466 0.316 0.316 0 0 0 4e-3 0.051l0.164 0.952a0.39 0.39 0 0 0 0.371 0.312h1.146a0.391 0.391 0 0 0 0.37-0.312l0.165-0.952a0.285 0.285 0 0 0 4e-3 -0.05 4.377 4.377 0 0 0 1.124-0.467 0.315 0.315 0 0 0 0.04 0.033l0.789 0.557a0.39 0.39 0 0 0 0.483-0.041l0.81-0.81a0.391 0.391 0 0 0 0.042-0.483l-0.557-0.79a0.344 0.344 0 0 0-0.033-0.039 4.386 4.386 0 0 0 0.466-1.124 0.316 0.316 0 0 0 0.05-4e-3l0.952-0.165a0.39 0.39 0 0 0 0.312-0.37zm-3.686 0.573a1.904 1.904 0 1 1-1.904-1.904 1.904 1.904 0 0 1 1.904 1.904z" fill="#52ff52" fill-opacity=".50196"/>
</svg>
