<?xml version="1.0" encoding="UTF-8" standalone="no"?><svg id="svg917" class="iconify iconify--emojione" width="480" height="480" aria-hidden="true" role="img" version="1.1" viewBox="0 0 60 60" xmlns="http://www.w3.org/2000/svg">
 <g id="g895" transform="translate(-2,-2)" fill="#ffe62e">
  <path id="path879" d="m20.5 59.7 7-7.2c-2.5-0.5-4.8-1.5-6.9-2.9l-0.1 10.1"/>
  <path id="path881" d="m43.5 4.3-7 7.2c2.5 0.5 4.8 1.5 6.9 2.9l0.1-10.1"/>
  <path id="path883" d="m4.3 43.5 10.1-0.1c-1.4-2.1-2.4-4.4-2.9-6.9l-7.2 7"/>
  <path id="path885" d="m59.7 20.5-10.1 0.1c1.3 2.1 2.3 4.4 2.9 6.9l7.2-7"/>
  <path id="path887" d="m4.3 20.5 7.2 7c0.5-2.5 1.5-4.8 2.9-6.9l-10.1-0.1"/>
  <path id="path889" d="m59.7 43.5-7.2-7c-0.5 2.5-1.5 4.8-2.9 6.9l10.1 0.1"/>
  <path id="path891" d="m20.5 4.3 0.1 10.1c2.1-1.3 4.4-2.3 6.9-2.9l-7-7.2"/>
  <path id="path893" d="m43.5 59.7-0.1-10.1c-2.1 1.4-4.4 2.4-6.9 2.9l7 7.2"/>
 </g>
 <g id="g915" transform="translate(-2,-2)" fill="#ffce31">
  <path id="path897" d="m14.8 44-4 9.3 9.3-4c-2.1-1.5-3.9-3.3-5.3-5.3"/>
  <path id="path899" d="m49.2 20 4-9.3-9.2 4c2 1.5 3.8 3.3 5.2 5.3"/>
  <path id="path901" d="m11.4 28.3-9.4 3.7 9.4 3.7c-0.3-1.2-0.4-2.4-0.4-3.7s0.1-2.5 0.4-3.7"/>
  <path id="path903" d="m52.6 35.7 9.4-3.7-9.4-3.7c0.2 1.2 0.4 2.5 0.4 3.7 0 1.3-0.1 2.5-0.4 3.7"/>
  <path id="path905" d="m20 14.8-9.3-4 4 9.3c1.5-2.1 3.3-3.9 5.3-5.3"/>
  <path id="path907" d="m44 49.2 9.3 4-4-9.3c-1.5 2.1-3.3 3.9-5.3 5.3"/>
  <path id="path909" d="m35.7 11.4-3.7-9.4-3.7 9.4c1.2-0.2 2.5-0.4 3.7-0.4s2.5 0.1 3.7 0.4"/>
  <path id="path911" d="m28.3 52.6 3.7 9.4 3.7-9.4c-1.2 0.3-2.4 0.4-3.7 0.4s-2.5-0.1-3.7-0.4"/>
  <circle id="circle913" cx="32" cy="32" r="19"/>
 </g>
</svg>
